<svg width="62" height="62" viewBox="0 0 62 62" fill="none" xmlns="http://www.w3.org/2000/svg">
<g filter="url(#filter0_d_2950_1172)">
<circle cx="31" cy="30" r="29" fill="white" stroke="white" stroke-width="2"/>
</g>
<path d="M17.8231 26.2425C17.3829 25.8454 17.3829 25.1546 17.8231 24.7575L27.3302 16.1811C27.9734 15.6008 29 16.0572 29 16.9236L29 34.0764C29 34.9428 27.9734 35.3992 27.3302 34.8189L17.8231 26.2425Z" fill="#3D3021"/>
<path d="M35.0437 42C37.7719 42 40.1136 41.125 42.0688 39.375C44.0241 37.625 45.0011 35.4444 45 32.8333C44.9989 30.2222 44.0212 28.0417 42.0671 26.2917C40.113 24.5417 37.7719 23.6667 35.0437 23.6667H24.4125L28.8 19.3333L26.4375 17L18 25.3333L26.4375 33.6667L28.8 31.3333L24.4125 27H35.0437C36.8156 27 38.3557 27.5556 39.6641 28.6667C40.9725 29.7778 41.6261 31.1667 41.625 32.8333C41.6239 34.5 40.9697 35.8889 39.6624 37C38.3552 38.1111 36.8156 38.6667 35.0437 38.6667H23.0625V42H35.0437Z" fill="#3D3021"/>
<defs>
<filter id="filter0_d_2950_1172" x="0.5" y="0" width="61" height="61.5" filterUnits="userSpaceOnUse" color-interpolation-filters="sRGB">
<feFlood flood-opacity="0" result="BackgroundImageFix"/>
<feColorMatrix in="SourceAlpha" type="matrix" values="0 0 0 0 0 0 0 0 0 0 0 0 0 0 0 0 0 0 127 0" result="hardAlpha"/>
<feOffset dy="1"/>
<feGaussianBlur stdDeviation="0.25"/>
<feComposite in2="hardAlpha" operator="out"/>
<feColorMatrix type="matrix" values="0 0 0 0 0 0 0 0 0 0 0 0 0 0 0 0 0 0 0.25 0"/>
<feBlend mode="normal" in2="BackgroundImageFix" result="effect1_dropShadow_2950_1172"/>
<feBlend mode="normal" in="SourceGraphic" in2="effect1_dropShadow_2950_1172" result="shape"/>
</filter>
</defs>
</svg>
