<svg width="131" height="107" viewBox="0 0 131 107" fill="none" xmlns="http://www.w3.org/2000/svg">
<path fill-rule="evenodd" clip-rule="evenodd" d="M65.7865 0C63.978 0 62.3647 1.13109 61.7564 2.82554L56.6256 17.1186C56.5946 17.2048 56.5666 17.2912 56.5415 17.3777H20.5408C9.19643 17.3777 0 26.5272 0 37.8137V86.0015C0 97.288 9.19646 106.438 20.5408 106.438H110.459C121.804 106.438 131 97.288 131 86.0015V37.8136C131 26.5272 121.804 17.3777 110.459 17.3777H99.8345C99.8262 17.349 99.8176 17.3203 99.8087 17.2916L95.362 2.99862C94.8073 1.21565 93.15 0 91.274 0H65.7865ZM117.9 61.3645C117.9 80.2592 102.504 95.5765 83.5126 95.5765C64.5209 95.5765 49.125 80.2592 49.125 61.3645C49.125 42.4697 64.5209 27.1524 83.5126 27.1524C102.504 27.1524 117.9 42.4697 117.9 61.3645ZM24.5624 48.8745C29.0842 48.8745 32.7499 45.2276 32.7499 40.7288C32.7499 36.2301 29.0842 32.5831 24.5624 32.5831C20.0406 32.5831 16.3749 36.2301 16.3749 40.7288C16.3749 45.2276 20.0406 48.8745 24.5624 48.8745ZM98.25 61.3643C98.25 69.4621 91.6518 76.0266 83.5125 76.0266C75.3732 76.0266 68.775 69.4621 68.775 61.3643C68.775 53.2665 75.3732 46.702 83.5125 46.702C91.6518 46.702 98.25 53.2665 98.25 61.3643Z" fill="#B74B4B"/>
<path d="M108.295 61.4061C108.295 75.2946 97.0358 86.5534 83.1473 86.5534C69.2588 86.5534 58 75.2946 58 61.4061C58 47.5176 69.2588 36.2588 83.1473 36.2588C97.0358 36.2588 108.295 47.5176 108.295 61.4061Z" fill="#DF7171"/>
</svg>
