<svg width="138" height="134" viewBox="0 0 138 134" fill="none" xmlns="http://www.w3.org/2000/svg">
<rect x="31.8135" y="47.8359" width="70.9999" height="26.4459" rx="13.223" transform="rotate(39.4769 31.8135 47.8359)" fill="#9DC97A"/>
<rect x="137.37" y="14.6602" width="117.391" height="26.4459" rx="13.223" transform="rotate(123.666 137.37 14.6602)" fill="#9DC97A"/>
<path fill-rule="evenodd" clip-rule="evenodd" d="M118 67.3828C118 95.8255 94.9427 118.883 66.5 118.883C38.0573 118.883 15 95.8255 15 67.3828C15 38.9401 38.0573 15.8828 66.5 15.8828C77.0361 15.8828 86.8333 19.0468 94.9931 24.4764L103.309 11.9908C92.7693 4.97273 80.1123 0.882812 66.5 0.882812C29.7731 0.882812 0 30.6559 0 67.3828C0 104.11 29.7731 133.883 66.5 133.883C103.227 133.883 133 104.11 133 67.3828C133 56.692 130.477 46.5905 125.995 37.641L115.904 52.7913C117.268 57.4175 118 62.3147 118 67.3828Z" fill="#39644F"/>
</svg>
