<svg width="140" height="54" viewBox="0 0 140 54" fill="none" xmlns="http://www.w3.org/2000/svg">
<path d="M23.9166 23V21.3C27.9366 17.7 30.3166 14.92 30.3166 12.64C30.3166 11.14 29.5166 10.24 28.0966 10.24C27.0166 10.24 26.1366 10.94 25.3766 11.76L23.7766 10.16C25.1366 8.7 26.4566 7.92 28.4766 7.92C31.2766 7.92 33.1366 9.72 33.1366 12.48C33.1366 15.16 30.9166 18.04 28.2166 20.68C28.9566 20.6 29.9366 20.52 30.6366 20.52H33.8366V23H23.9166ZM40.734 23.28C37.714 23.28 35.714 20.64 35.714 15.54C35.714 10.42 37.714 7.92 40.734 7.92C43.754 7.92 45.734 10.44 45.734 15.54C45.734 20.64 43.754 23.28 40.734 23.28ZM40.734 20.98C42.014 20.98 42.954 19.7 42.954 15.54C42.954 11.4 42.014 10.2 40.734 10.2C39.454 10.2 38.494 11.4 38.494 15.54C38.494 19.7 39.454 20.98 40.734 20.98ZM47.4713 23V21.3C51.4913 17.7 53.8713 14.92 53.8713 12.64C53.8713 11.14 53.0713 10.24 51.6513 10.24C50.5713 10.24 49.6913 10.94 48.9313 11.76L47.3313 10.16C48.6913 8.7 50.0113 7.92 52.0313 7.92C54.8313 7.92 56.6913 9.72 56.6913 12.48C56.6913 15.16 54.4713 18.04 51.7713 20.68C52.5113 20.6 53.4913 20.52 54.1913 20.52H57.3913V23H47.4713ZM61.6687 16.92H65.1287V13.9C65.1287 13.04 65.1887 11.7 65.2287 10.82H65.1487C64.7887 11.62 64.3887 12.44 63.9687 13.24L61.6687 16.92ZM65.1287 23V19.16H58.8087V17.16L64.3287 8.18H67.8687V16.92H69.6087V19.16H67.8687V23H65.1287ZM76.566 18.2H80.026V15.16H76.566V18.2ZM89.326 18.2V20.48H82.486V24.76H80.026V20.48H71.026V18.2H74.186V12.94H80.026V10.56H75.746C74.926 11.98 73.966 13.26 73.026 14.2C72.566 13.8 71.546 13 70.966 12.66C72.766 11.14 74.306 8.58 75.166 6L77.586 6.62C77.406 7.18 77.186 7.72 76.926 8.26H88.226V10.56H82.486V12.94H87.766V15.16H82.486V18.2H89.326ZM95.686 23.28C93.346 23.28 91.786 22.36 90.686 21.26L92.046 19.38C92.886 20.2 93.926 20.88 95.306 20.88C96.846 20.88 97.926 19.9 97.926 18.16C97.926 16.44 96.926 15.48 95.426 15.48C94.546 15.48 94.066 15.7 93.206 16.26L91.866 15.38L92.266 8.18H100.186V10.66H94.806L94.526 13.8C95.126 13.52 95.626 13.38 96.306 13.38C98.786 13.38 100.866 14.86 100.866 18.08C100.866 21.38 98.426 23.28 95.686 23.28ZM108.043 16.46H116.203V14.02H108.183C108.163 14.78 108.123 15.62 108.043 16.46ZM116.203 9.32H108.183V11.76H116.203V9.32ZM118.723 7V21.7C118.723 23.14 118.383 23.82 117.463 24.22C116.503 24.64 115.103 24.68 113.043 24.68C112.903 23.98 112.423 22.84 112.043 22.18C113.443 22.26 115.123 22.24 115.563 22.24C116.043 22.24 116.203 22.08 116.203 21.66V18.76H107.643C107.123 21 106.123 23.18 104.263 24.74C103.903 24.24 102.943 23.36 102.423 23.02C105.443 20.44 105.723 16.62 105.723 13.58V7H118.723Z" fill="#3D3021"/>
<rect y="15.3789" width="10.4359" height="2.08719" rx="1.04359" transform="rotate(-45 0 15.3789)" fill="#959595"/>
<rect width="10.4359" height="2.08719" rx="1.04359" transform="matrix(0.707107 0.707107 0.707107 -0.707107 0 15.4502)" fill="#959595"/>
</svg>
