<svg width="53" height="53" viewBox="0 0 53 53" fill="none" xmlns="http://www.w3.org/2000/svg">
<g filter="url(#filter0_d_3480_313)">
<circle cx="26.5" cy="25.5" r="24.5" fill="#3D3021" stroke="#3D3021" stroke-width="2"/>
</g>
<path fill-rule="evenodd" clip-rule="evenodd" d="M27.384 17.1724H24.6146C24.431 17.1724 24.2549 17.2487 24.125 17.3845C23.9952 17.5203 23.9222 17.7045 23.9222 17.8966V18.6207H28.0764V17.8966C28.0764 17.7045 28.0034 17.5203 27.8736 17.3845C27.7438 17.2487 27.5677 17.1724 27.384 17.1724ZM30.1535 18.6207V17.8966C30.1535 17.1283 29.8617 16.3916 29.3423 15.8484C28.823 15.3052 28.1185 15 27.384 15H24.6146C23.8801 15 23.1757 15.3052 22.6563 15.8484C22.1369 16.3916 21.8451 17.1283 21.8451 17.8966V18.6207H18.0385C17.7631 18.6207 17.4989 18.7351 17.3042 18.9388C17.1094 19.1425 17 19.4188 17 19.7069C17 19.995 17.1094 20.2713 17.3042 20.475C17.4989 20.6787 17.7631 20.7931 18.0385 20.7931H18.4706L18.9095 31.8362C18.9542 32.9564 19.4111 34.0151 20.1848 34.7911C20.9585 35.5671 21.989 36.0002 23.0609 36H28.9391C30.0108 35.9999 31.0409 35.5665 31.8143 34.7906C32.5877 34.0146 33.0444 32.9561 33.0891 31.8362L33.5294 20.7931H33.9615C34.2369 20.7931 34.5011 20.6787 34.6958 20.475C34.8906 20.2713 35 19.995 35 19.7069C35 19.4188 34.8906 19.1425 34.6958 18.9388C34.5011 18.7351 34.2369 18.6207 33.9615 18.6207H30.1535ZM31.4496 20.7931H20.549L20.9852 31.745C21.0074 32.3052 21.2358 32.8347 21.6226 33.2229C22.0095 33.611 22.5248 33.8277 23.0609 33.8276H28.9391C29.4749 33.8273 29.9899 33.6105 30.3765 33.2224C30.763 32.8343 30.9912 32.3049 31.0134 31.745L31.4496 20.7931ZM22.8837 23.6897V30.931C22.8837 31.2191 22.9931 31.4954 23.1879 31.6991C23.3826 31.9028 23.6468 32.0172 23.9222 32.0172C24.1977 32.0172 24.4618 31.9028 24.6566 31.6991C24.8513 31.4954 24.9608 31.2191 24.9608 30.931V23.6897C24.9608 23.4016 24.8513 23.1253 24.6566 22.9216C24.4618 22.7179 24.1977 22.6034 23.9222 22.6034C23.6468 22.6034 23.3826 22.7179 23.1879 22.9216C22.9931 23.1253 22.8837 23.4016 22.8837 23.6897ZM28.0764 22.6034C28.3518 22.6034 28.616 22.7179 28.8108 22.9216C29.0055 23.1253 29.1149 23.4016 29.1149 23.6897V30.931C29.1149 31.2191 29.0055 31.4954 28.8108 31.6991C28.616 31.9028 28.3518 32.0172 28.0764 32.0172C27.801 32.0172 27.5368 31.9028 27.342 31.6991C27.1473 31.4954 27.0378 31.2191 27.0378 30.931V23.6897C27.0378 23.4016 27.1473 23.1253 27.342 22.9216C27.5368 22.7179 27.801 22.6034 28.0764 22.6034Z" fill="white"/>
<defs>
<filter id="filter0_d_3480_313" x="0.5" y="0" width="52" height="52.5" filterUnits="userSpaceOnUse" color-interpolation-filters="sRGB">
<feFlood flood-opacity="0" result="BackgroundImageFix"/>
<feColorMatrix in="SourceAlpha" type="matrix" values="0 0 0 0 0 0 0 0 0 0 0 0 0 0 0 0 0 0 127 0" result="hardAlpha"/>
<feOffset dy="1"/>
<feGaussianBlur stdDeviation="0.25"/>
<feComposite in2="hardAlpha" operator="out"/>
<feColorMatrix type="matrix" values="0 0 0 0 0 0 0 0 0 0 0 0 0 0 0 0 0 0 0.25 0"/>
<feBlend mode="normal" in2="BackgroundImageFix" result="effect1_dropShadow_3480_313"/>
<feBlend mode="normal" in="SourceGraphic" in2="effect1_dropShadow_3480_313" result="shape"/>
</filter>
</defs>
</svg>
