<svg width="250" height="344" viewBox="0 0 250 344" fill="none" xmlns="http://www.w3.org/2000/svg">
<path d="M54.6689 196.183L124.5 155.866L194.331 196.183V276.817L124.5 317.134L54.6689 276.817V196.183Z" stroke="#FFFAFE" stroke-width="1.5"/>
<path d="M118.633 192.388L122.14 190.362L122.315 190.666L122.618 190.491L124.5 189.404L126.382 190.491L126.685 190.666L126.86 190.363L130.367 192.387L130.192 192.691L130.495 192.866L134.609 195.241L134.912 195.416L135.087 195.112L138.595 197.138L138.42 197.441L138.723 197.616L142.836 199.991L143.139 200.166L143.314 199.863L146.822 201.887L146.647 202.191L146.95 202.366L151.064 204.741L151.367 204.916L151.542 204.613L155.049 206.637L154.874 206.941L155.177 207.116L159.291 209.491L159.594 209.666L159.769 209.363L163.276 211.387L163.101 211.691L163.404 211.866L165.286 212.952V215.125V215.475H165.636V219.525H165.286V219.875V224.625V224.975H165.636V229.025H165.286V229.375V234.125V234.475H165.636V238.525H165.286V238.875V243.625V243.975H165.636V248.025H165.286V248.375V253.125V253.475H165.636V257.525H165.286V257.875V260.048L163.404 261.134L163.101 261.309L163.276 261.613L159.769 263.637L159.594 263.334L159.291 263.509L155.177 265.884L154.874 266.059L155.049 266.363L151.542 268.387L151.367 268.084L151.064 268.259L146.95 270.634L146.647 270.809L146.822 271.113L143.314 273.137L143.139 272.834L142.836 273.009L138.723 275.384L138.42 275.559L138.595 275.863L135.087 277.887L134.912 277.584L134.609 277.759L130.495 280.134L130.192 280.309L130.367 280.613L126.86 282.637L126.685 282.334L126.382 282.509L124.5 283.596L122.618 282.509L122.315 282.334L122.14 282.637L118.633 280.613L118.808 280.309L118.505 280.134L114.391 277.759L114.088 277.584L113.913 277.887L110.405 275.863L110.58 275.559L110.277 275.384L106.164 273.009L105.861 272.834L105.686 273.137L102.178 271.113L102.353 270.809L102.05 270.634L97.9365 268.259L97.6334 268.084L97.4584 268.387L93.951 266.363L94.126 266.059L93.8228 265.884L89.7092 263.509L89.4061 263.334L89.2311 263.637L85.7237 261.613L85.8987 261.309L85.5956 261.134L83.7138 260.048V257.875V257.525H83.3638V253.475H83.7138V253.125V248.375V248.025H83.3638V243.975H83.7138V243.625V238.875V238.525H83.3638V234.475H83.7138V234.125V229.375V229.025H83.3638V224.975H83.7138V224.625V219.875V219.525H83.3638V215.475H83.7138V215.125V212.952L85.5956 211.866L85.8987 211.691L85.7237 211.388L89.2311 209.363L89.4061 209.666L89.7092 209.491L93.8228 207.116L94.126 206.941L93.951 206.638L97.4584 204.612L97.6334 204.916L97.9365 204.741L102.05 202.366L102.353 202.191L102.178 201.888L105.686 199.862L105.861 200.166L106.164 199.991L110.277 197.616L110.58 197.441L110.405 197.137L113.913 195.112L114.088 195.416L114.391 195.241L118.505 192.866L118.808 192.691L118.633 192.388Z" stroke="white" stroke-opacity="0.86" stroke-width="0.7" stroke-miterlimit="3.99393" stroke-linecap="square" stroke-dasharray="5 5"/>
<path d="M118.158 207.95L122.315 205.55L122.49 205.853L122.793 205.678L125 204.404L127.207 205.678L127.51 205.853L127.685 205.55L131.842 207.95L131.667 208.253L131.97 208.428L136.733 211.178L137.036 211.353L137.211 211.05L141.368 213.45L141.193 213.753L141.496 213.928L146.259 216.678L146.562 216.853L146.737 216.55L150.894 218.95L150.719 219.253L151.022 219.428L153.229 220.702V223.25V223.6H153.579V228.4H153.229V228.75V234.25V234.6H153.579V239.4H153.229V239.75V245.25V245.6H153.579V250.4H153.229V250.75V253.298L151.022 254.572L150.719 254.747L150.894 255.05L146.737 257.45L146.562 257.147L146.259 257.322L141.496 260.072L141.193 260.247L141.368 260.55L137.211 262.95L137.036 262.647L136.733 262.822L131.97 265.572L131.667 265.747L131.842 266.05L127.685 268.45L127.51 268.147L127.207 268.322L125 269.596L122.793 268.322L122.49 268.147L122.315 268.45L118.158 266.05L118.333 265.747L118.03 265.572L113.267 262.822L112.964 262.647L112.789 262.95L108.632 260.55L108.807 260.247L108.504 260.072L103.741 257.322L103.438 257.147L103.263 257.45L99.1058 255.05L99.2808 254.747L98.9777 254.572L96.7712 253.298V250.75V250.4H96.4212V245.6H96.7712V245.25V239.75V239.4H96.4212V234.6H96.7712V234.25V228.75V228.4H96.4212V223.6H96.7712V223.25V220.702L98.9777 219.428L99.2808 219.253L99.1058 218.95L103.263 216.55L103.438 216.853L103.741 216.678L108.504 213.928L108.807 213.753L108.632 213.45L112.789 211.05L112.964 211.353L113.267 211.178L118.03 208.428L118.333 208.253L118.158 207.95Z" stroke="white" stroke-opacity="0.86" stroke-width="0.7" stroke-miterlimit="3.99393" stroke-linecap="square" stroke-dasharray="5 5"/>
<path d="M68.9914 204.452L124.5 172.404L180.009 204.452V268.548L124.5 300.596L68.9914 268.548V204.452Z" stroke="white" stroke-opacity="0.91" stroke-width="0.7"/>
<path d="M124.5 156V317M54.5 196L194.5 277M194.5 196L54.5 277" stroke="white" stroke-opacity="0.88" stroke-width="0.7"/>
<path d="M76 206L125.5 181L172 207.5L161 255L125.5 293.5L67 268.5L76 206Z" fill="#D7D6E7" fill-opacity="0.93" stroke="white" stroke-opacity="0.88" stroke-width="0.7"/>
<path d="M108.644 135.56H105.892C105.86 135.784 105.828 136.008 105.78 136.216C106.612 137.032 108.34 139.032 108.788 139.56L107.508 141.16C106.98 140.328 106.068 139.128 105.284 138.152C104.74 139.72 103.796 141.224 102.26 142.344C102.004 141.944 101.3 141.192 100.9 140.904C102.98 139.416 103.716 137.416 103.972 135.56H101.14V133.768H104.1V133.368V131.224H103.46C103.14 132.04 102.772 132.776 102.372 133.368C102.02 133.048 101.268 132.504 100.836 132.264C101.7 131.112 102.308 129.272 102.628 127.448L104.452 127.816C104.34 128.376 104.212 128.92 104.052 129.464H108.276V131.224H106.02V133.384V133.768H108.644V135.56ZM110.916 138.984H113.236V130.616H110.916V138.984ZM109.076 128.824H115.172V141.688H113.236V140.776H110.916V141.928H109.076V128.824ZM129.396 131.848H119.556V132.888H129.396V131.848ZM119.54 138.696V133.688H117.636V130.184H120.004C119.684 129.624 119.204 128.952 118.74 128.44L120.388 127.72C120.964 128.344 121.668 129.224 121.956 129.832L121.204 130.184H123.972C123.732 129.544 123.268 128.696 122.836 128.024L124.5 127.464C124.996 128.152 125.572 129.112 125.812 129.736L124.596 130.184H126.836C127.38 129.416 127.956 128.36 128.308 127.576L130.356 128.184C129.876 128.888 129.364 129.576 128.884 130.184H131.396V133.688H129.412V138.776H127.412V134.536H121.46V138.696H119.54ZM127.732 140.52H129.492C130.004 140.52 130.1 140.328 130.164 139.112C130.532 139.384 131.316 139.656 131.812 139.768C131.62 141.656 131.124 142.136 129.684 142.136H127.46C125.556 142.136 125.108 141.624 125.108 140.056V138.456C124.5 139.88 122.852 141.352 118.708 142.44C118.468 142.024 117.892 141.336 117.428 140.952C122.98 139.736 123.444 138.008 123.444 136.744V135.192H125.428V136.792C125.428 137.208 125.38 137.64 125.236 138.088H127.012V140.04C127.012 140.456 127.124 140.52 127.732 140.52ZM137.412 136.376L137.956 138.056C136.548 138.888 134.996 139.768 133.684 140.472L132.964 138.552C133.412 138.36 133.956 138.104 134.548 137.832V133.064H133.108V131.24H134.548V127.656H136.324V131.24H137.524V133.064H136.324V136.92L137.412 136.376ZM145.876 132.424L147.572 132.744C147.076 134.84 146.372 136.712 145.444 138.312C145.716 139.736 146.084 140.6 146.468 140.6C146.692 140.6 146.82 140.008 146.868 138.584C147.22 139.032 147.748 139.432 148.148 139.64C147.876 141.768 147.412 142.376 146.212 142.376C145.316 142.376 144.644 141.528 144.148 140.168C143.492 140.984 142.74 141.688 141.908 142.28C141.652 141.96 140.948 141.352 140.548 141.08C141.316 140.6 141.988 140.024 142.596 139.384C140.9 139.832 139.108 140.312 137.732 140.664L137.284 138.888C138.676 138.632 140.772 138.152 142.788 137.704L142.932 138.968C143.172 138.68 143.396 138.392 143.604 138.088C143.236 136.184 143.028 133.848 142.932 131.368H137.764V129.64H142.868C142.852 128.904 142.836 128.184 142.836 127.448H144.644C144.628 128.184 144.628 128.904 144.644 129.64H146.34C145.94 129.224 145.412 128.744 144.948 128.376L146.02 127.448C146.644 127.896 147.412 128.536 147.78 129L147.092 129.64H147.796V131.368H144.692C144.756 132.824 144.852 134.184 144.996 135.4C145.364 134.472 145.636 133.496 145.876 132.424ZM140.852 135.848V133.896H139.62V135.848H140.852ZM138.228 132.44H142.34V137.304H138.228V132.44Z" fill="white"/>
<path d="M17.568 169.256L16.464 170.808C15.824 170.296 14.464 169.528 13.488 169.032L14.544 167.64C15.504 168.056 16.88 168.76 17.568 169.256ZM16.64 173.624L15.584 175.208C14.944 174.712 13.584 173.96 12.608 173.48L13.616 172.056C14.56 172.472 15.936 173.144 16.64 173.624ZM16.048 175.96L17.456 177.224C16.608 178.904 15.6 180.728 14.624 182.28L13.024 181C13.872 179.784 15.104 177.8 16.048 175.96ZM23.44 180.12H27.488V181.928H17.104V180.12H21.456V176.856H18.224V175.048H21.456V172.232H17.584V170.424H21.84C21.648 169.752 21.168 168.744 20.72 167.976L22.48 167.384C22.96 168.136 23.52 169.176 23.744 169.864L22.192 170.424H27.072V172.232H23.44V175.048H26.496V176.856H23.44V180.12ZM38.08 169.816H33.92C34.096 170.168 34.272 170.6 34.368 170.936H37.632C37.792 170.568 37.968 170.152 38.08 169.816ZM42.944 170.936V172.408H29.104V170.936H32.448C32.368 170.632 32.24 170.312 32.128 170.056L33.328 169.816H29.888V168.344H35.072C34.992 168.088 34.896 167.816 34.8 167.592L36.656 167.256C36.832 167.576 36.992 167.976 37.12 168.344H42.096V169.816H38.816L40.096 170.04C39.904 170.36 39.744 170.664 39.584 170.936H42.944ZM39.328 174.856V174.168H32.704V174.856H39.328ZM39.328 176.664V175.976H32.704V176.664H39.328ZM41.216 172.984V177.864H36.32C36.944 178.2 37.6 178.6 38 178.92L36.832 180.088C36.304 179.592 35.216 178.92 34.32 178.504L34.976 177.864H30.912V172.984H41.216ZM30.24 181.992L28.656 181.064C29.488 180.376 30.208 179.304 30.64 178.344L32.224 179.048C31.744 180.056 31.072 181.224 30.24 181.992ZM35.296 180.696H37.504C38.096 180.696 38.192 180.52 38.272 179.4C38.64 179.64 39.392 179.896 39.888 179.992C39.68 181.768 39.168 182.216 37.68 182.216H35.104C33.088 182.216 32.592 181.752 32.592 180.248V178.568H34.448V180.232C34.448 180.648 34.576 180.696 35.296 180.696ZM39.632 178.872L41.168 178.2C41.92 179.048 42.768 180.216 43.12 181.032L41.472 181.768C41.184 180.984 40.384 179.768 39.632 178.872ZM48.912 176.376L49.456 178.056C48.048 178.888 46.496 179.768 45.184 180.472L44.464 178.552C44.912 178.36 45.456 178.104 46.048 177.832V173.064H44.608V171.24H46.048V167.656H47.824V171.24H49.024V173.064H47.824V176.92L48.912 176.376ZM57.376 172.424L59.072 172.744C58.576 174.84 57.872 176.712 56.944 178.312C57.216 179.736 57.584 180.6 57.968 180.6C58.192 180.6 58.32 180.008 58.368 178.584C58.72 179.032 59.248 179.432 59.648 179.64C59.376 181.768 58.912 182.376 57.712 182.376C56.816 182.376 56.144 181.528 55.648 180.168C54.992 180.984 54.24 181.688 53.408 182.28C53.152 181.96 52.448 181.352 52.048 181.08C52.816 180.6 53.488 180.024 54.096 179.384C52.4 179.832 50.608 180.312 49.232 180.664L48.784 178.888C50.176 178.632 52.272 178.152 54.288 177.704L54.432 178.968C54.672 178.68 54.896 178.392 55.104 178.088C54.736 176.184 54.528 173.848 54.432 171.368H49.264V169.64H54.368C54.352 168.904 54.336 168.184 54.336 167.448H56.144C56.128 168.184 56.128 168.904 56.144 169.64H57.84C57.44 169.224 56.912 168.744 56.448 168.376L57.52 167.448C58.144 167.896 58.912 168.536 59.28 169L58.592 169.64H59.296V171.368H56.192C56.256 172.824 56.352 174.184 56.496 175.4C56.864 174.472 57.136 173.496 57.376 172.424ZM52.352 175.848V173.896H51.12V175.848H52.352ZM49.728 172.44H53.84V177.304H49.728V172.44Z" fill="white"/>
<path d="M17.664 289.264L16.288 290.608C15.776 289.872 14.56 288.688 13.664 287.872L14.928 286.688C15.84 287.456 17.072 288.528 17.664 289.264ZM16.864 297.648L18.112 296.784C18.208 297.296 18.48 298.08 18.688 298.464C15.936 300.432 15.44 300.864 15.152 301.216C14.976 300.816 14.464 300.128 14.16 299.84C14.496 299.552 14.96 298.928 14.96 298.08V293.152H12.64V291.328H16.864V297.648ZM21.952 299.312H24.624C25.456 299.312 25.6 298.944 25.712 296.832C26.144 297.152 26.976 297.456 27.504 297.6C27.28 300.352 26.72 301.136 24.752 301.136H21.744C19.632 301.136 18.96 300.576 18.96 298.512V292.624H24.624V289.376H18.624V287.488H26.544V295.2H24.624V294.416H20.928V298.528C20.928 299.2 21.072 299.312 21.952 299.312ZM29.824 294.32L28.336 293.776C28.72 292.72 28.992 290.928 29.104 289.6L30.544 289.792C30.496 291.184 30.208 293.088 29.824 294.32ZM34.72 292.112L33.312 292.768C33.184 292.144 32.88 291.248 32.528 290.4V301.392H30.688V286.448H32.528V289.488L33.488 289.088C33.968 290.064 34.512 291.328 34.72 292.112ZM37.136 299.152H40.544C41.344 299.152 41.584 298.72 41.664 296.176C42.16 296.448 42.832 296.704 43.36 296.784C43.12 300.272 42.4 300.992 40.4 300.992H37.2C34.8 300.992 33.76 300 33.76 298.512C33.76 297.36 34.064 296.16 39.552 289.552H34.336V287.744H41.424L41.872 287.68L43.056 288.336C43.008 288.432 42.928 288.544 42.816 288.624C36.08 296.352 35.68 297.504 35.68 298.304C35.68 298.912 36.208 299.152 37.136 299.152ZM48.912 295.376L49.456 297.056C48.048 297.888 46.496 298.768 45.184 299.472L44.464 297.552C44.912 297.36 45.456 297.104 46.048 296.832V292.064H44.608V290.24H46.048V286.656H47.824V290.24H49.024V292.064H47.824V295.92L48.912 295.376ZM57.376 291.424L59.072 291.744C58.576 293.84 57.872 295.712 56.944 297.312C57.216 298.736 57.584 299.6 57.968 299.6C58.192 299.6 58.32 299.008 58.368 297.584C58.72 298.032 59.248 298.432 59.648 298.64C59.376 300.768 58.912 301.376 57.712 301.376C56.816 301.376 56.144 300.528 55.648 299.168C54.992 299.984 54.24 300.688 53.408 301.28C53.152 300.96 52.448 300.352 52.048 300.08C52.816 299.6 53.488 299.024 54.096 298.384C52.4 298.832 50.608 299.312 49.232 299.664L48.784 297.888C50.176 297.632 52.272 297.152 54.288 296.704L54.432 297.968C54.672 297.68 54.896 297.392 55.104 297.088C54.736 295.184 54.528 292.848 54.432 290.368H49.264V288.64H54.368C54.352 287.904 54.336 287.184 54.336 286.448H56.144C56.128 287.184 56.128 287.904 56.144 288.64H57.84C57.44 288.224 56.912 287.744 56.448 287.376L57.52 286.448C58.144 286.896 58.912 287.536 59.28 288L58.592 288.64H59.296V290.368H56.192C56.256 291.824 56.352 293.184 56.496 294.4C56.864 293.472 57.136 292.496 57.376 291.424ZM52.352 294.848V292.896H51.12V294.848H52.352ZM49.728 291.44H53.84V296.304H49.728V291.44Z" fill="white"/>
<path d="M194.048 171.288L192.416 171.992C192.144 171.176 191.552 169.88 191.04 168.92L192.608 168.328C193.152 169.272 193.744 170.488 194.048 171.288ZM197.568 168.28L199.28 168.776C198.832 169.88 198.16 171.24 197.696 172.104H198.608V173.912H196.032V174.024C196.032 174.648 196.016 175.288 195.952 175.912H199.104V177.672H195.696C195.264 179.576 194.352 181.336 192.416 182.52C192.128 182.12 191.44 181.448 191.008 181.128C192.464 180.232 193.264 179 193.664 177.672H190.688V175.912H194.032C194.112 175.272 194.128 174.616 194.128 174.008V173.912H191.216V172.104H194.128V167.528H196.032V172.104H197.52C197.088 171.864 196.448 171.576 196.064 171.432C196.576 170.6 197.168 169.336 197.568 168.28ZM201.552 169.4V178.376H199.712V169.4H201.552ZM202.928 167.8H204.816V180.088C204.816 181.208 204.592 181.72 203.936 182.056C203.28 182.36 202.224 182.424 200.752 182.408C200.656 181.864 200.368 180.984 200.096 180.44C201.136 180.488 202.176 180.488 202.496 180.488C202.8 180.472 202.928 180.376 202.928 180.072V167.8ZM210.88 171.32L209.648 171.736C209.632 170.984 209.408 169.848 209.12 168.968L210.272 168.616C210.592 169.448 210.832 170.568 210.88 171.32ZM216.896 170.344V172.696H221.488V174.456H220.112V182.376H218.304V174.456H216.896C216.864 177.16 216.608 179.976 215.392 182.52C215.04 182.152 214.416 181.688 213.92 181.384C213.984 181.224 214.048 181.08 214.112 180.92H207.12V167.96H208.768V176.664C209.568 175.96 210.352 174.792 210.864 173.656H209.088V172.056H211.008V167.464H212.576V171.288C212.864 170.536 213.168 169.4 213.296 168.6L214.784 168.952C214.4 169.912 213.968 171.048 213.632 171.736L212.576 171.4V172.056H214.64V173.656H212.576V173.752C213.024 174.152 214.368 175.592 214.672 175.944L213.664 177.224C213.44 176.824 213.008 176.168 212.576 175.576V178.952H211.008V176.136C210.544 177 210.016 177.768 209.456 178.296C209.328 177.848 209.008 177.224 208.768 176.792V179.288H214.16V180.776C214.976 178.488 215.088 176.136 215.088 173.976V169.16C216.848 168.728 218.784 168.04 219.952 167.336L221.52 168.744C220.192 169.416 218.496 169.96 216.896 170.344ZM226.912 176.376L227.456 178.056C226.048 178.888 224.496 179.768 223.184 180.472L222.464 178.552C222.912 178.36 223.456 178.104 224.048 177.832V173.064H222.608V171.24H224.048V167.656H225.824V171.24H227.024V173.064H225.824V176.92L226.912 176.376ZM235.376 172.424L237.072 172.744C236.576 174.84 235.872 176.712 234.944 178.312C235.216 179.736 235.584 180.6 235.968 180.6C236.192 180.6 236.32 180.008 236.368 178.584C236.72 179.032 237.248 179.432 237.648 179.64C237.376 181.768 236.912 182.376 235.712 182.376C234.816 182.376 234.144 181.528 233.648 180.168C232.992 180.984 232.24 181.688 231.408 182.28C231.152 181.96 230.448 181.352 230.048 181.08C230.816 180.6 231.488 180.024 232.096 179.384C230.4 179.832 228.608 180.312 227.232 180.664L226.784 178.888C228.176 178.632 230.272 178.152 232.288 177.704L232.432 178.968C232.672 178.68 232.896 178.392 233.104 178.088C232.736 176.184 232.528 173.848 232.432 171.368H227.264V169.64H232.368C232.352 168.904 232.336 168.184 232.336 167.448H234.144C234.128 168.184 234.128 168.904 234.144 169.64H235.84C235.44 169.224 234.912 168.744 234.448 168.376L235.52 167.448C236.144 167.896 236.912 168.536 237.28 169L236.592 169.64H237.296V171.368H234.192C234.256 172.824 234.352 174.184 234.496 175.4C234.864 174.472 235.136 173.496 235.376 172.424ZM230.352 175.848V173.896H229.12V175.848H230.352ZM227.728 172.44H231.84V177.304H227.728V172.44Z" fill="white"/>
<path d="M198.768 295.168V296.672H200.72V295.168H198.768ZM200.72 290.368V288.944H198.768V290.368H200.72ZM200.72 293.488V292.048H198.768V293.488H200.72ZM205.408 296.672V298.416H198.768V299.408H196.944V290.816C196.608 291.264 196.272 291.696 195.92 292.08C195.824 291.968 195.696 291.824 195.568 291.664L195.744 292.928C195.248 293.088 194.72 293.248 194.192 293.392V297.216C194.192 298.128 194.032 298.624 193.52 298.944C193.024 299.264 192.32 299.328 191.28 299.328C191.232 298.816 191.008 298.016 190.768 297.472C191.328 297.488 191.888 297.488 192.08 297.472C192.272 297.472 192.352 297.424 192.352 297.2V293.936L190.816 294.352L190.384 292.544C190.944 292.416 191.616 292.256 192.352 292.064V289.152H190.576V287.408H192.352V284.464H194.192V287.408H195.776V289.152H194.192V291.568L195.232 291.296C194.992 291.056 194.752 290.816 194.56 290.656C196.016 289.216 197.312 286.896 198.032 284.544L199.824 285.024C199.568 285.76 199.28 286.48 198.976 287.2H201.152C200.944 286.592 200.592 285.84 200.24 285.232L201.888 284.592C202.32 285.248 202.768 286.176 202.976 286.784L202.016 287.2H205.056V288.944H202.496V290.368H204.88V292.048H202.496V293.488H204.864V295.168H202.496V296.672H205.408ZM211.744 294.4L212.064 296.192C210.304 296.816 208.384 297.424 206.848 297.92L206.416 295.984C206.976 295.84 207.632 295.664 208.368 295.456V291.696H206.752V289.952H208.368V287.136H206.608V285.36H211.888V287.136H210.176V289.952H211.616V291.696H210.176V294.896C210.704 294.736 211.232 294.576 211.744 294.4ZM214.208 289.568V290.944H215.856V289.568H214.208ZM214.208 286.736V288.08H215.856V286.736H214.208ZM219.04 288.08V286.736H217.456V288.08H219.04ZM219.04 290.944V289.568H217.456V290.944H219.04ZM217.632 297.168H221.568V298.896H211.28V297.168H215.696V295.648H212.384V293.936H215.696V292.56H212.496V285.12H220.848V292.56H217.632V293.936H221.024V295.648H217.632V297.168ZM226.912 293.376L227.456 295.056C226.048 295.888 224.496 296.768 223.184 297.472L222.464 295.552C222.912 295.36 223.456 295.104 224.048 294.832V290.064H222.608V288.24H224.048V284.656H225.824V288.24H227.024V290.064H225.824V293.92L226.912 293.376ZM235.376 289.424L237.072 289.744C236.576 291.84 235.872 293.712 234.944 295.312C235.216 296.736 235.584 297.6 235.968 297.6C236.192 297.6 236.32 297.008 236.368 295.584C236.72 296.032 237.248 296.432 237.648 296.64C237.376 298.768 236.912 299.376 235.712 299.376C234.816 299.376 234.144 298.528 233.648 297.168C232.992 297.984 232.24 298.688 231.408 299.28C231.152 298.96 230.448 298.352 230.048 298.08C230.816 297.6 231.488 297.024 232.096 296.384C230.4 296.832 228.608 297.312 227.232 297.664L226.784 295.888C228.176 295.632 230.272 295.152 232.288 294.704L232.432 295.968C232.672 295.68 232.896 295.392 233.104 295.088C232.736 293.184 232.528 290.848 232.432 288.368H227.264V286.64H232.368C232.352 285.904 232.336 285.184 232.336 284.448H234.144C234.128 285.184 234.128 285.904 234.144 286.64H235.84C235.44 286.224 234.912 285.744 234.448 285.376L235.52 284.448C236.144 284.896 236.912 285.536 237.28 286L236.592 286.64H237.296V288.368H234.192C234.256 289.824 234.352 291.184 234.496 292.4C234.864 291.472 235.136 290.496 235.376 289.424ZM230.352 292.848V290.896H229.12V292.848H230.352ZM227.728 289.44H231.84V294.304H227.728V289.44Z" fill="white"/>
<path d="M105.016 330.648V332.056H108.024V330.648H105.016ZM105.016 327.768V329.112H108.024V327.768H105.016ZM112.792 329.112V327.768H109.864V329.112H112.792ZM112.792 332.056V330.648H109.864V332.056H112.792ZM107.112 334.744L108.232 333.704H103.224V326.12H114.68V333.704H108.632C109.704 334.248 110.936 335.064 111.592 335.736L110.232 337.032C109.608 336.344 108.264 335.352 107.112 334.744ZM103.336 339.48L101.624 338.536C102.36 337.576 102.968 336.136 103.304 334.824L105.032 335.448C104.648 336.808 104.104 338.424 103.336 339.48ZM108.392 338.376H110.664C111.32 338.376 111.448 338.136 111.544 336.552C111.928 336.84 112.744 337.144 113.256 337.256C113.048 339.528 112.488 340.104 110.824 340.104H108.168C106.056 340.104 105.528 339.544 105.528 337.848V335.224H107.448V337.832C107.448 338.312 107.592 338.376 108.392 338.376ZM112.632 335.432L114.328 334.728C115.224 335.928 116.12 337.48 116.44 338.6L114.584 339.384C114.312 338.312 113.496 336.68 112.632 335.432ZM120.472 333.944L123.176 333.512C123.112 333.992 123.096 334.712 123.112 335.096C119.16 335.848 118.504 336.024 118.088 336.28C118.008 335.928 117.72 335.128 117.528 334.696C117.928 334.6 118.28 334.216 118.776 333.64C119.016 333.384 119.48 332.776 119.992 332.024C118.584 332.184 118.2 332.28 117.96 332.392C117.864 332.04 117.576 331.192 117.368 330.712C117.704 330.632 117.976 330.296 118.328 329.768C118.68 329.272 119.736 327.272 120.296 325.4L121.992 326.2C121.4 327.688 120.52 329.256 119.64 330.536L121 330.44C121.352 329.832 121.688 329.208 121.976 328.584L123.464 329.496C122.616 331.048 121.576 332.6 120.472 333.944ZM117.912 339.688L117.56 337.88C119.016 337.608 121.256 337.08 123.4 336.6L123.576 338.184C121.608 338.712 119.512 339.256 117.912 339.688ZM126.104 336.152V337.592H128.056V336.152H126.104ZM128.056 331.4V330.008H126.104V331.4H128.056ZM128.056 334.44V333.096H126.104V334.44H128.056ZM132.424 337.592V339.368H126.104V340.408H124.312V332.184C124.104 332.456 123.88 332.728 123.656 332.984C123.496 332.504 123.096 331.656 122.84 331.208C124.04 329.752 125.112 327.352 125.608 325.512L127.432 326.024C127.176 326.776 126.888 327.528 126.536 328.296H128.6C128.392 327.672 127.992 326.84 127.608 326.2L129.224 325.528C129.688 326.216 130.152 327.144 130.36 327.752L129.176 328.296H132.216V330.008H129.816V331.4H131.848V333.096H129.816V334.44H131.88V336.152H129.816V337.592H132.424ZM137.912 334.376L138.456 336.056C137.048 336.888 135.496 337.768 134.184 338.472L133.464 336.552C133.912 336.36 134.456 336.104 135.048 335.832V331.064H133.608V329.24H135.048V325.656H136.824V329.24H138.024V331.064H136.824V334.92L137.912 334.376ZM146.376 330.424L148.072 330.744C147.576 332.84 146.872 334.712 145.944 336.312C146.216 337.736 146.584 338.6 146.968 338.6C147.192 338.6 147.32 338.008 147.368 336.584C147.72 337.032 148.248 337.432 148.648 337.64C148.376 339.768 147.912 340.376 146.712 340.376C145.816 340.376 145.144 339.528 144.648 338.168C143.992 338.984 143.24 339.688 142.408 340.28C142.152 339.96 141.448 339.352 141.048 339.08C141.816 338.6 142.488 338.024 143.096 337.384C141.4 337.832 139.608 338.312 138.232 338.664L137.784 336.888C139.176 336.632 141.272 336.152 143.288 335.704L143.432 336.968C143.672 336.68 143.896 336.392 144.104 336.088C143.736 334.184 143.528 331.848 143.432 329.368H138.264V327.64H143.368C143.352 326.904 143.336 326.184 143.336 325.448H145.144C145.128 326.184 145.128 326.904 145.144 327.64H146.84C146.44 327.224 145.912 326.744 145.448 326.376L146.52 325.448C147.144 325.896 147.912 326.536 148.28 327L147.592 327.64H148.296V329.368H145.192C145.256 330.824 145.352 332.184 145.496 333.4C145.864 332.472 146.136 331.496 146.376 330.424ZM141.352 333.848V331.896H140.12V333.848H141.352ZM138.728 330.44H142.84V335.304H138.728V330.44Z" fill="white"/>
<path d="M88.4 26.78V25.49H77.54V26.78H88.4ZM77.54 33.92H88.4V32.54H77.54V33.92ZM88.4 30.32V29H77.54V30.32H88.4ZM94.82 21.56H78.65C78.44 21.98 78.2 22.37 77.96 22.79H92V37.7H88.4V36.62H77.54V37.7H74.12V27.83C72.77 29.18 71.24 30.41 69.5 31.43C68.99 30.59 67.94 29.27 67.25 28.55C70.37 26.87 72.77 24.38 74.57 21.56H68.18V18.74H76.07C76.28 18.32 76.46 17.87 76.64 17.45H70.28V14.75H77.6C77.72 14.33 77.84 13.91 77.93 13.46C75.44 13.55 72.95 13.58 70.61 13.55C70.58 12.77 70.25 11.6 69.95 10.88C77.27 10.88 85.94 10.52 90.98 9.68L93.08 12.23C89.9 12.77 85.97 13.1 81.86 13.31C81.74 13.79 81.59 14.27 81.44 14.75H93.2V17.45H80.48C80.33 17.87 80.15 18.32 79.97 18.74H94.82V21.56ZM118.4 26.78V25.49H107.54V26.78H118.4ZM107.54 33.92H118.4V32.54H107.54V33.92ZM118.4 30.32V29H107.54V30.32H118.4ZM124.82 21.56H108.65C108.44 21.98 108.2 22.37 107.96 22.79H122V37.7H118.4V36.62H107.54V37.7H104.12V27.83C102.77 29.18 101.24 30.41 99.5 31.43C98.99 30.59 97.94 29.27 97.25 28.55C100.37 26.87 102.77 24.38 104.57 21.56H98.18V18.74H106.07C106.28 18.32 106.46 17.87 106.64 17.45H100.28V14.75H107.6C107.72 14.33 107.84 13.91 107.93 13.46C105.44 13.55 102.95 13.58 100.61 13.55C100.58 12.77 100.25 11.6 99.95 10.88C107.27 10.88 115.94 10.52 120.98 9.68L123.08 12.23C119.9 12.77 115.97 13.1 111.86 13.31C111.74 13.79 111.59 14.27 111.44 14.75H123.2V17.45H110.48C110.33 17.87 110.15 18.32 109.97 18.74H124.82V21.56ZM133.67 9.71L137.06 10.76C136.28 12.83 135.32 14.93 134.21 16.91V37.55H130.79V22.22C130.13 23.12 129.44 23.93 128.78 24.65C128.45 23.75 127.46 21.8 126.86 20.93C129.56 18.23 132.17 13.97 133.67 9.71ZM139.22 22.94L142.7 23.66C141.83 27.47 140.3 31.25 138.62 33.68C137.93 33.11 136.43 32.21 135.56 31.76C137.27 29.66 138.53 26.27 139.22 22.94ZM151.7 18.26H147.68V33.62C147.68 35.33 147.38 36.32 146.3 36.92C145.25 37.49 143.81 37.64 141.89 37.64C141.74 36.59 141.2 35 140.66 34.04C141.92 34.07 143.18 34.07 143.6 34.07C143.99 34.07 144.14 33.95 144.14 33.56V18.26H140.66C139.82 20 138.83 21.59 137.84 22.85C137.21 22.22 135.77 21.05 134.96 20.51C137.24 17.96 139.04 13.82 140.06 9.71L143.54 10.49C143.15 12.02 142.67 13.49 142.13 14.96H152.45L153.02 14.84L155.54 15.32C155.18 17.75 154.67 20.54 154.25 22.28L151.22 21.77C151.37 20.84 151.55 19.58 151.7 18.26ZM148.76 23.72L151.94 22.64C153.5 25.73 154.79 29.72 155.21 32.42L151.79 33.59C151.46 30.92 150.2 26.81 148.76 23.72ZM162.02 31.37H166.79V25.49H162.02V31.37ZM166.79 22.4V17.54H162.02V22.4H166.79ZM176.33 14.21H184.76C184.76 14.21 184.76 15.41 184.73 15.83C184.34 29.24 184.01 34.01 182.78 35.6C181.94 36.71 181.1 37.04 179.9 37.25C178.76 37.4 176.96 37.37 175.19 37.31C175.13 36.32 174.65 34.82 174.02 33.83C175.94 34.01 177.71 34.01 178.49 34.01C179.09 34.01 179.42 33.89 179.81 33.5C180.68 32.54 181.07 28.04 181.4 17.45H174.98C174.2 19.25 173.27 20.9 172.34 22.19C171.86 21.74 170.84 21.05 170.03 20.51V34.52H162.02V36.71H158.78V14.42H162.17C162.56 12.92 162.92 11 163.04 9.59L166.94 10.13C166.43 11.63 165.89 13.13 165.38 14.42H170.03V19.28C171.77 16.76 173.21 13.13 174.08 9.62L177.5 10.4C177.17 11.69 176.78 12.95 176.33 14.21ZM179.78 27.89L176.75 29.75C175.91 27.95 174.05 25.01 172.58 22.82L175.37 21.23C176.87 23.3 178.85 26.15 179.78 27.89ZM61.49 57.42L59.12 60.12C58.01 58.8 55.58 56.7 53.75 55.26L55.94 52.89C57.74 54.24 60.29 56.13 61.49 57.42ZM63.86 63.93V53.55H67.43V63.93C67.43 69.69 67.1 75.72 64.19 80.55C63.35 79.92 61.7 78.96 60.68 78.6C61.58 77.28 62.18 75.87 62.66 74.43C57.74 78.75 56.87 79.68 56.36 80.43C56.03 79.71 55.1 78.45 54.53 77.94C55.19 77.4 56 76.29 56 74.67V65.22H52.52V61.8H59.42V72.99L61.58 71.13C61.85 72 62.39 73.2 62.81 73.92C63.74 70.77 63.86 67.35 63.86 63.93ZM70.01 76.59V55.08H73.31V76.59H70.01ZM75.98 53.34H79.55V80.25H75.98V53.34ZM83.42 65.61V65.49C83.39 65.52 83.39 65.58 83.39 65.61C83.21 64.95 82.64 63.33 82.25 62.4C82.85 62.22 83.33 61.56 83.81 60.57C84.38 59.64 86.06 55.8 86.81 52.29L90.11 53.79C89.21 56.64 87.77 59.7 86.3 62.16L88.31 62.01C88.82 61.02 89.33 60 89.72 58.98L92.6 60.66C91.31 63.33 89.69 66.03 87.98 68.4L92.09 67.65C91.97 68.55 91.97 69.9 92.03 70.62C85.58 72.03 84.35 72.45 83.66 72.87V72.9V72.87L83.63 72.9L83.6 72.75C83.39 72 82.91 70.65 82.58 69.84C83.3 69.66 83.87 69 84.68 67.95C85.07 67.47 85.82 66.36 86.66 64.98C84.47 65.25 83.81 65.4 83.42 65.61ZM91.46 72.54L92.03 75.18C89.06 76.62 85.94 78.03 83.42 79.2L82.58 75.69C84.74 75 88.1 73.77 91.46 72.54ZM95.15 71.04L98.39 71.97C97.16 74.52 95.42 77.43 93.56 79.32C92.96 78.72 91.82 77.85 91.1 77.37C92.75 75.72 94.37 73.08 95.15 71.04ZM97.16 66.66H100.04V64.26H98.09C97.79 65.1 97.46 65.88 97.16 66.66ZM109.07 69.87H103.49V76.86C103.49 78.54 103.19 79.38 102.11 79.92C101.09 80.43 99.56 80.49 97.49 80.49C97.37 79.56 96.92 78.21 96.5 77.28C97.73 77.34 99.08 77.31 99.5 77.31C99.89 77.31 100.04 77.19 100.04 76.8V69.87H96.8C95.54 69.87 94.25 70.02 93.98 70.35C93.83 69.72 93.29 68.16 92.9 67.32C93.59 67.11 94.07 66.18 94.67 64.68L94.85 64.26H93.08V61.02H95.87C96.08 60.36 96.29 59.67 96.47 58.92H92.63V55.65H97.28C97.52 54.57 97.73 53.52 97.88 52.44L101.36 52.89C101.18 53.82 100.97 54.72 100.73 55.65H109.49V58.92H99.83C99.62 59.64 99.41 60.33 99.2 61.02H103.49V66.66H109.07V69.87ZM104.48 72.39L107.27 71.1C108.38 73.14 109.88 75.87 110.6 77.52L107.6 79.05C106.97 77.37 105.56 74.52 104.48 72.39ZM135.05 62.16L138.62 63.03C137.39 66.93 135.62 70.41 133.46 73.32C134.33 75.48 135.29 76.74 136.25 76.74C136.97 76.74 137.33 75.24 137.48 71.49C138.29 72.33 139.55 73.11 140.51 73.5C139.94 79.05 138.74 80.37 135.95 80.37C133.85 80.37 132.2 78.87 130.88 76.41C129.35 78 127.67 79.35 125.81 80.49C125.27 79.71 123.98 78.24 123.23 77.55C125.54 76.29 127.61 74.64 129.35 72.69C128.33 69.3 127.67 65.1 127.28 60.6H118.58V63.81H125.99C125.99 63.81 125.96 64.74 125.96 65.16C125.87 71.46 125.69 74.13 125 75C124.43 75.78 123.83 76.05 122.93 76.2C122.15 76.32 120.86 76.32 119.48 76.29C119.42 75.24 119.03 73.86 118.49 72.96C119.57 73.05 120.59 73.08 121.07 73.08C121.49 73.08 121.73 73.02 121.97 72.72C122.27 72.3 122.39 70.86 122.48 67.08H118.58C118.46 71.46 117.83 77.31 115.37 80.97C114.74 80.28 113.15 78.96 112.34 78.54C114.62 74.94 114.83 69.72 114.83 65.82V57.06H127.07C127.01 55.59 126.95 54.12 126.95 52.62H130.7C130.67 54.12 130.7 55.59 130.76 57.06H135.35C134.24 56.16 132.74 55.2 131.51 54.45L133.67 52.32C135.32 53.16 137.51 54.54 138.56 55.53L137.12 57.06H140.24V60.6H130.97C131.24 63.6 131.66 66.42 132.17 68.82C133.34 66.81 134.33 64.59 135.05 62.16ZM149.84 63.54H154.67V61.62H149.84V63.54ZM149.84 56.94V58.86H154.67V56.94H149.84ZM163.22 58.86V56.94H158.45V58.86H163.22ZM163.22 63.54V61.62H158.45V63.54H163.22ZM169.91 71.55H161.06C163.7 73.68 167.36 75.6 170.78 76.59C169.97 77.31 168.89 78.72 168.38 79.62C164.9 78.3 161.24 75.96 158.45 73.23V80.61H154.67V73.38C151.91 76.14 148.25 78.48 144.68 79.8C144.14 78.96 143.06 77.58 142.25 76.83C145.82 75.78 149.54 73.8 152.06 71.55H143.18V68.28H154.67V66.51H146.09V53.97H167.15V66.51H158.45V68.28H169.91V71.55ZM179.18 58.47H176.78V69.51H179.18V58.47ZM182.45 55.2V72.78H176.78V75.45H173.54V55.2H182.45ZM190.25 57.66H187.88V65.88H190.25V57.66ZM196.07 65.88V57.66H193.49V65.88H196.07ZM189.89 76.83H195.47C197.03 76.83 197.33 76.14 197.57 73.05C198.38 73.65 199.79 74.25 200.78 74.43C200.33 78.63 199.25 80.13 195.77 80.13H189.5C185.6 80.13 184.37 79.05 184.37 74.73V54.39H199.52V70.86H196.07V69.12H187.88V74.76C187.88 76.56 188.12 76.83 189.89 76.83Z" fill="#F0F0F0"/>
</svg>
