<svg width="53" height="53" viewBox="0 0 53 53" fill="none" xmlns="http://www.w3.org/2000/svg">
<g filter="url(#filter0_d_3480_314)">
<circle cx="26.5" cy="25.5" r="24.5" fill="#3D3021" stroke="#3D3021" stroke-width="2"/>
</g>
<path d="M31 37C30.1667 37 29.4583 36.7083 28.875 36.125C28.2917 35.5417 28 34.8333 28 34C28 33.8833 28.0083 33.7623 28.025 33.637C28.0417 33.5117 28.0667 33.3993 28.1 33.3L21.05 29.2C20.7667 29.45 20.45 29.646 20.1 29.788C19.75 29.93 19.3833 30.0007 19 30C18.1667 30 17.4583 29.7083 16.875 29.125C16.2917 28.5417 16 27.8333 16 27C16 26.1667 16.2917 25.4583 16.875 24.875C17.4583 24.2917 18.1667 24 19 24C19.3833 24 19.75 24.071 20.1 24.213C20.45 24.355 20.7667 24.5507 21.05 24.8L28.1 20.7C28.0667 20.6 28.0417 20.4877 28.025 20.363C28.0083 20.2383 28 20.1173 28 20C28 19.1667 28.2917 18.4583 28.875 17.875C29.4583 17.2917 30.1667 17 31 17C31.8333 17 32.5417 17.2917 33.125 17.875C33.7083 18.4583 34 19.1667 34 20C34 20.8333 33.7083 21.5417 33.125 22.125C32.5417 22.7083 31.8333 23 31 23C30.6167 23 30.25 22.9293 29.9 22.788C29.55 22.6467 29.2333 22.4507 28.95 22.2L21.9 26.3C21.9333 26.4 21.9583 26.5127 21.975 26.638C21.9917 26.7633 22 26.884 22 27C22 27.116 21.9917 27.237 21.975 27.363C21.9583 27.489 21.9333 27.6013 21.9 27.7L28.95 31.8C29.2333 31.55 29.55 31.3543 29.9 31.213C30.25 31.0717 30.6167 31.0007 31 31C31.8333 31 32.5417 31.2917 33.125 31.875C33.7083 32.4583 34 33.1667 34 34C34 34.8333 33.7083 35.5417 33.125 36.125C32.5417 36.7083 31.8333 37 31 37Z" fill="white"/>
<defs>
<filter id="filter0_d_3480_314" x="0.5" y="0" width="52" height="52.5" filterUnits="userSpaceOnUse" color-interpolation-filters="sRGB">
<feFlood flood-opacity="0" result="BackgroundImageFix"/>
<feColorMatrix in="SourceAlpha" type="matrix" values="0 0 0 0 0 0 0 0 0 0 0 0 0 0 0 0 0 0 127 0" result="hardAlpha"/>
<feOffset dy="1"/>
<feGaussianBlur stdDeviation="0.25"/>
<feComposite in2="hardAlpha" operator="out"/>
<feColorMatrix type="matrix" values="0 0 0 0 0 0 0 0 0 0 0 0 0 0 0 0 0 0 0.25 0"/>
<feBlend mode="normal" in2="BackgroundImageFix" result="effect1_dropShadow_3480_314"/>
<feBlend mode="normal" in="SourceGraphic" in2="effect1_dropShadow_3480_314" result="shape"/>
</filter>
</defs>
</svg>
