<svg width="36" height="36" viewBox="0 0 36 36" fill="none" xmlns="http://www.w3.org/2000/svg">
<g filter="url(#filter0_d_2955_411)">
<circle cx="18.0002" cy="17.0002" r="12.551" fill="#D9D9D9"/>
<circle cx="18" cy="17" r="15" fill="#F9F2EE"/>
</g>
<path d="M24.8035 14.963C24.4391 13.5922 23.6244 12.3772 22.4851 11.5054C21.3457 10.6335 19.945 10.1532 18.4988 10.1384C17.0526 10.1237 15.6412 10.5753 14.4822 11.4238C13.3232 12.2722 12.481 13.4703 12.0854 14.8333M24.8035 14.963L22 14.5M24.8035 14.963L26.5 12.5" stroke="#DB5252" stroke-width="1.5"/>
<path d="M12.0521 18.5002C12.3909 19.8776 13.1828 21.6075 14.3057 22.5005C15.4286 23.3935 16.8201 23.8998 18.2658 23.9415C19.7115 23.9832 21.131 23.558 22.3056 22.7313C23.4802 21.9047 24.3446 20.7225 24.7656 19.367M12.0521 18.5002L15.5 19M12.0521 18.5002L10 21.5" stroke="#DB5252" stroke-width="1.5"/>
<defs>
<filter id="filter0_d_2955_411" x="0.2" y="0.2" width="35.6" height="35.6" filterUnits="userSpaceOnUse" color-interpolation-filters="sRGB">
<feFlood flood-opacity="0" result="BackgroundImageFix"/>
<feColorMatrix in="SourceAlpha" type="matrix" values="0 0 0 0 0 0 0 0 0 0 0 0 0 0 0 0 0 0 127 0" result="hardAlpha"/>
<feOffset dy="1"/>
<feGaussianBlur stdDeviation="1.4"/>
<feComposite in2="hardAlpha" operator="out"/>
<feColorMatrix type="matrix" values="0 0 0 0 0 0 0 0 0 0 0 0 0 0 0 0 0 0 0.4 0"/>
<feBlend mode="normal" in2="BackgroundImageFix" result="effect1_dropShadow_2955_411"/>
<feBlend mode="normal" in="SourceGraphic" in2="effect1_dropShadow_2955_411" result="shape"/>
</filter>
</defs>
</svg>
